%TF.GenerationSoftware,KiCad,Pcbnew,8.0.1-rc1*%
%TF.CreationDate,2024-05-10T09:17:23-04:00*%
%TF.ProjectId,KiCad LED matrix,4b694361-6420-44c4-9544-206d61747269,rev?*%
%TF.SameCoordinates,Original*%
%TF.FileFunction,Copper,L1,Top*%
%TF.FilePolarity,Positive*%
%FSLAX46Y46*%
G04 Gerber Fmt 4.6, Leading zero omitted, Abs format (unit mm)*
G04 Created by KiCad (PCBNEW 8.0.1-rc1) date 2024-05-10 09:17:23*
%MOMM*%
%LPD*%
G01*
G04 APERTURE LIST*
%TA.AperFunction,ComponentPad*%
%ADD10C,1.600000*%
%TD*%
%TA.AperFunction,ComponentPad*%
%ADD11O,1.600000X1.600000*%
%TD*%
%TA.AperFunction,ComponentPad*%
%ADD12O,1.700000X1.700000*%
%TD*%
%TA.AperFunction,ComponentPad*%
%ADD13R,1.700000X1.700000*%
%TD*%
%TA.AperFunction,ComponentPad*%
%ADD14O,1.200000X2.000000*%
%TD*%
%TA.AperFunction,Conductor*%
%ADD15C,1.000000*%
%TD*%
G04 APERTURE END LIST*
D10*
%TO.P,R3,1*%
%TO.N,Net-(J2-Pin_19)*%
X154940000Y-54610000D03*
D11*
%TO.P,R3,2*%
%TO.N,Net-(J1-Pin_19)*%
X154940000Y-69850000D03*
%TD*%
D12*
%TO.P,J2,1,Pin_1*%
%TO.N,Net-(J1-Pin_1)*%
X201930000Y-116840000D03*
%TO.P,J2,2,Pin_2*%
%TO.N,Net-(J1-Pin_2)*%
X201930000Y-114300000D03*
%TO.P,J2,3,Pin_3*%
%TO.N,Net-(J1-Pin_3)*%
X201930000Y-111760000D03*
%TO.P,J2,4,Pin_4*%
%TO.N,Net-(J1-Pin_4)*%
X201930000Y-109220000D03*
%TO.P,J2,5,Pin_5*%
%TO.N,Net-(J1-Pin_5)*%
X201930000Y-106680000D03*
%TO.P,J2,6,Pin_6*%
%TO.N,Net-(J1-Pin_6)*%
X201930000Y-104140000D03*
%TO.P,J2,7,Pin_7*%
%TO.N,Net-(J1-Pin_7)*%
X201930000Y-101600000D03*
%TO.P,J2,8,Pin_8*%
%TO.N,Net-(J1-Pin_8)*%
X201930000Y-99060000D03*
%TO.P,J2,9,Pin_9*%
%TO.N,Net-(J1-Pin_9)*%
X201930000Y-96520000D03*
%TO.P,J2,10,Pin_10*%
%TO.N,Net-(J1-Pin_10)*%
X201930000Y-93980000D03*
%TO.P,J2,11,Pin_11*%
%TO.N,Net-(J1-Pin_11)*%
X201930000Y-91440000D03*
%TO.P,J2,12,Pin_12*%
%TO.N,Net-(J1-Pin_12)*%
X201930000Y-88900000D03*
%TO.P,J2,13,Pin_13*%
%TO.N,Net-(J1-Pin_13)*%
X201930000Y-86360000D03*
%TO.P,J2,14,Pin_14*%
%TO.N,Net-(J1-Pin_14)*%
X201930000Y-83820000D03*
%TO.P,J2,15,Pin_15*%
%TO.N,Net-(J1-Pin_15)*%
X201930000Y-81280000D03*
%TO.P,J2,16,Pin_16*%
%TO.N,Net-(J1-Pin_16)*%
X201930000Y-78740000D03*
%TO.P,J2,17,Pin_17*%
%TO.N,Net-(J2-Pin_17)*%
X204470000Y-78740000D03*
%TO.P,J2,18,Pin_18*%
%TO.N,Net-(J2-Pin_18)*%
X204470000Y-81280000D03*
%TO.P,J2,19,Pin_19*%
%TO.N,Net-(J2-Pin_19)*%
X204470000Y-83820000D03*
%TO.P,J2,20,Pin_20*%
%TO.N,Net-(J2-Pin_20)*%
X204470000Y-86360000D03*
%TO.P,J2,21,Pin_21*%
%TO.N,Net-(J1-Pin_21)*%
X204470000Y-88900000D03*
%TO.P,J2,22,Pin_22*%
%TO.N,Net-(J1-Pin_22)*%
X204470000Y-91440000D03*
%TO.P,J2,23,Pin_23*%
%TO.N,Net-(J1-Pin_23)*%
X204470000Y-93980000D03*
%TO.P,J2,24,Pin_24*%
%TO.N,Net-(J1-Pin_24)*%
X204470000Y-96520000D03*
%TO.P,J2,25,Pin_25*%
%TO.N,Net-(J1-Pin_25)*%
X204470000Y-99060000D03*
%TO.P,J2,26,Pin_26*%
%TO.N,Net-(J1-Pin_26)*%
X204470000Y-101600000D03*
%TO.P,J2,27,Pin_27*%
%TO.N,Net-(J1-Pin_27)*%
X204470000Y-104140000D03*
%TO.P,J2,28,Pin_28*%
%TO.N,Net-(J1-Pin_28)*%
X204470000Y-106680000D03*
%TO.P,J2,29,Pin_29*%
%TO.N,Net-(J2-Pin_29)*%
X204470000Y-109220000D03*
%TO.P,J2,30,Pin_30*%
%TO.N,Net-(J2-Pin_30)*%
X204470000Y-111760000D03*
%TO.P,J2,31,Pin_31*%
%TO.N,Net-(J2-Pin_31)*%
X204470000Y-114300000D03*
%TO.P,J2,32,Pin_32*%
%TO.N,Net-(J2-Pin_32)*%
X204470000Y-116840000D03*
%TO.P,J2,GND,GND*%
%TO.N,unconnected-(J2-PadGND)*%
X201930000Y-119380000D03*
X204470000Y-119380000D03*
D13*
%TO.P,J2,PWR,PWR*%
%TO.N,unconnected-(J2-PadPWR)*%
X201930000Y-76200000D03*
D12*
X204470000Y-76200000D03*
%TD*%
D10*
%TO.P,R8,1*%
%TO.N,Net-(J1-Pin_32)*%
X186690000Y-69850000D03*
D11*
%TO.P,R8,2*%
%TO.N,Net-(J2-Pin_32)*%
X186690000Y-54610000D03*
%TD*%
D10*
%TO.P,R5,1*%
%TO.N,Net-(J1-Pin_29)*%
X198120000Y-69850000D03*
D11*
%TO.P,R5,2*%
%TO.N,Net-(J2-Pin_29)*%
X198120000Y-54610000D03*
%TD*%
D10*
%TO.P,R2,1*%
%TO.N,Net-(J2-Pin_18)*%
X158750000Y-54610000D03*
D11*
%TO.P,R2,2*%
%TO.N,Net-(J1-Pin_18)*%
X158750000Y-69850000D03*
%TD*%
D10*
%TO.P,R1,1*%
%TO.N,Net-(J1-Pin_17)*%
X162560000Y-69850000D03*
D11*
%TO.P,R1,2*%
%TO.N,Net-(J2-Pin_17)*%
X162560000Y-54610000D03*
%TD*%
D10*
%TO.P,R6,1*%
%TO.N,Net-(J1-Pin_30)*%
X194310000Y-69850000D03*
D11*
%TO.P,R6,2*%
%TO.N,Net-(J2-Pin_30)*%
X194310000Y-54610000D03*
%TD*%
D10*
%TO.P,R7,1*%
%TO.N,Net-(J1-Pin_31)*%
X190500000Y-69850000D03*
D11*
%TO.P,R7,2*%
%TO.N,Net-(J2-Pin_31)*%
X190500000Y-54610000D03*
%TD*%
D10*
%TO.P,R4,1*%
%TO.N,Net-(J2-Pin_20)*%
X151130000Y-54610000D03*
D11*
%TO.P,R4,2*%
%TO.N,Net-(J1-Pin_20)*%
X151130000Y-69850000D03*
%TD*%
D14*
%TO.P,J1,1,Pin_1*%
%TO.N,Net-(J1-Pin_1)*%
X191770000Y-112230000D03*
%TO.P,J1,2,Pin_2*%
%TO.N,Net-(J1-Pin_2)*%
X189230000Y-112230000D03*
%TO.P,J1,3,Pin_3*%
%TO.N,Net-(J1-Pin_3)*%
X186690000Y-112230000D03*
%TO.P,J1,4,Pin_4*%
%TO.N,Net-(J1-Pin_4)*%
X184150000Y-112230000D03*
%TO.P,J1,5,Pin_5*%
%TO.N,Net-(J1-Pin_5)*%
X181610000Y-112230000D03*
%TO.P,J1,6,Pin_6*%
%TO.N,Net-(J1-Pin_6)*%
X179070000Y-112230000D03*
%TO.P,J1,7,Pin_7*%
%TO.N,Net-(J1-Pin_7)*%
X176530000Y-112230000D03*
%TO.P,J1,8,Pin_8*%
%TO.N,Net-(J1-Pin_8)*%
X173990000Y-112230000D03*
%TO.P,J1,9,Pin_9*%
%TO.N,Net-(J1-Pin_9)*%
X171450000Y-112230000D03*
%TO.P,J1,10,Pin_10*%
%TO.N,Net-(J1-Pin_10)*%
X168910000Y-112230000D03*
%TO.P,J1,11,Pin_11*%
%TO.N,Net-(J1-Pin_11)*%
X166370000Y-112230000D03*
%TO.P,J1,12,Pin_12*%
%TO.N,Net-(J1-Pin_12)*%
X163830000Y-112230000D03*
%TO.P,J1,13,Pin_13*%
%TO.N,Net-(J1-Pin_13)*%
X161290000Y-112230000D03*
%TO.P,J1,14,Pin_14*%
%TO.N,Net-(J1-Pin_14)*%
X158750000Y-112230000D03*
%TO.P,J1,15,Pin_15*%
%TO.N,Net-(J1-Pin_15)*%
X156210000Y-112230000D03*
%TO.P,J1,16,Pin_16*%
%TO.N,Net-(J1-Pin_16)*%
X153670000Y-112230000D03*
%TO.P,J1,17,Pin_17*%
%TO.N,Net-(J1-Pin_17)*%
X153670000Y-75730000D03*
%TO.P,J1,18,Pin_18*%
%TO.N,Net-(J1-Pin_18)*%
X156210000Y-75730000D03*
%TO.P,J1,19,Pin_19*%
%TO.N,Net-(J1-Pin_19)*%
X158750000Y-75730000D03*
%TO.P,J1,20,Pin_20*%
%TO.N,Net-(J1-Pin_20)*%
X161290000Y-75730000D03*
%TO.P,J1,21,Pin_21*%
%TO.N,Net-(J1-Pin_21)*%
X163830000Y-75730000D03*
%TO.P,J1,22,Pin_22*%
%TO.N,Net-(J1-Pin_22)*%
X166370000Y-75730000D03*
%TO.P,J1,23,Pin_23*%
%TO.N,Net-(J1-Pin_23)*%
X168910000Y-75730000D03*
%TO.P,J1,24,Pin_24*%
%TO.N,Net-(J1-Pin_24)*%
X171450000Y-75730000D03*
%TO.P,J1,25,Pin_25*%
%TO.N,Net-(J1-Pin_25)*%
X173990000Y-75730000D03*
%TO.P,J1,26,Pin_26*%
%TO.N,Net-(J1-Pin_26)*%
X176530000Y-75730000D03*
%TO.P,J1,27,Pin_27*%
%TO.N,Net-(J1-Pin_27)*%
X179070000Y-75730000D03*
%TO.P,J1,28,Pin_28*%
%TO.N,Net-(J1-Pin_28)*%
X181610000Y-75730000D03*
%TO.P,J1,29,Pin_29*%
%TO.N,Net-(J1-Pin_29)*%
X184150000Y-75730000D03*
%TO.P,J1,30,Pin_30*%
%TO.N,Net-(J1-Pin_30)*%
X186690000Y-75730000D03*
%TO.P,J1,31,Pin_31*%
%TO.N,Net-(J1-Pin_31)*%
X189230000Y-75730000D03*
%TO.P,J1,32,Pin_32*%
%TO.N,Net-(J1-Pin_32)*%
X191770000Y-75730000D03*
%TD*%
D15*
%TO.N,Net-(J1-Pin_20)*%
X158280000Y-78740000D02*
X154441522Y-78740000D01*
X154441522Y-78740000D02*
X151130000Y-75428478D01*
X151130000Y-75428478D02*
X151130000Y-69850000D01*
X161290000Y-75730000D02*
X158280000Y-78740000D01*
%TO.N,Net-(J1-Pin_9)*%
X201930000Y-96520000D02*
X187160000Y-96520000D01*
X187160000Y-96520000D02*
X171450000Y-112230000D01*
%TO.N,Net-(J1-Pin_5)*%
X181610000Y-112230000D02*
X181610000Y-111760000D01*
X186690000Y-106680000D02*
X201930000Y-106680000D01*
X181610000Y-111760000D02*
X186690000Y-106680000D01*
%TO.N,Net-(J1-Pin_13)*%
X185890000Y-87630000D02*
X161290000Y-112230000D01*
X201930000Y-86360000D02*
X200660000Y-87630000D01*
X200660000Y-87630000D02*
X185890000Y-87630000D01*
%TO.N,Net-(J1-Pin_7)*%
X176530000Y-112230000D02*
X176530000Y-111760000D01*
X176530000Y-111760000D02*
X186690000Y-101600000D01*
X186690000Y-101600000D02*
X201930000Y-101600000D01*
%TO.N,Net-(J1-Pin_18)*%
X156210000Y-72390000D02*
X158750000Y-69850000D01*
X156210000Y-75730000D02*
X156210000Y-72390000D01*
%TO.N,Net-(J1-Pin_1)*%
X191770000Y-112230000D02*
X197320000Y-112230000D01*
X197320000Y-112230000D02*
X201930000Y-116840000D01*
%TO.N,Net-(J1-Pin_11)*%
X166370000Y-111760000D02*
X186690000Y-91440000D01*
X186690000Y-91440000D02*
X201930000Y-91440000D01*
X166370000Y-112230000D02*
X166370000Y-111760000D01*
%TO.N,Net-(J2-Pin_32)*%
X194310000Y-46990000D02*
X186690000Y-54610000D01*
X219710000Y-116840000D02*
X219710000Y-46990000D01*
X204470000Y-116840000D02*
X219710000Y-116840000D01*
X219710000Y-46990000D02*
X194310000Y-46990000D01*
%TO.N,Net-(J1-Pin_3)*%
X186991522Y-112230000D02*
X188691522Y-110530000D01*
X186690000Y-112230000D02*
X186991522Y-112230000D01*
X200700000Y-110530000D02*
X201930000Y-111760000D01*
X188691522Y-110530000D02*
X200700000Y-110530000D01*
%TO.N,Net-(J1-Pin_15)*%
X185890000Y-82550000D02*
X200660000Y-82550000D01*
X200660000Y-82550000D02*
X201930000Y-81280000D01*
X156210000Y-112230000D02*
X185890000Y-82550000D01*
%TO.N,Net-(J1-Pin_30)*%
X186690000Y-77470000D02*
X187960000Y-78740000D01*
X195580000Y-71120000D02*
X194310000Y-69850000D01*
X186690000Y-75730000D02*
X186690000Y-77470000D01*
X195580000Y-78740000D02*
X195580000Y-71120000D01*
X187960000Y-78740000D02*
X195580000Y-78740000D01*
%TO.N,Net-(J2-Pin_30)*%
X214630000Y-52070000D02*
X196850000Y-52070000D01*
X214630000Y-111760000D02*
X214630000Y-52070000D01*
X196850000Y-52070000D02*
X194310000Y-54610000D01*
X204470000Y-111760000D02*
X214630000Y-111760000D01*
%TO.N,Net-(J1-Pin_31)*%
X189230000Y-71120000D02*
X190500000Y-69850000D01*
X189230000Y-75730000D02*
X189230000Y-71120000D01*
%TO.N,Net-(J2-Pin_31)*%
X217170000Y-114300000D02*
X204470000Y-114300000D01*
X217170000Y-49530000D02*
X217170000Y-114300000D01*
X190500000Y-54610000D02*
X195580000Y-49530000D01*
X195580000Y-49530000D02*
X217170000Y-49530000D01*
%TO.N,Net-(J2-Pin_29)*%
X198120000Y-54610000D02*
X212090000Y-54610000D01*
X212090000Y-109220000D02*
X204470000Y-109220000D01*
X212090000Y-54610000D02*
X212090000Y-109220000D01*
%TD*%
M02*
