%TF.GenerationSoftware,KiCad,Pcbnew,8.0.1-rc1*%
%TF.CreationDate,2024-05-10T09:17:23-04:00*%
%TF.ProjectId,KiCad LED matrix,4b694361-6420-44c4-9544-206d61747269,rev?*%
%TF.SameCoordinates,Original*%
%TF.FileFunction,Legend,Top*%
%TF.FilePolarity,Positive*%
%FSLAX46Y46*%
G04 Gerber Fmt 4.6, Leading zero omitted, Abs format (unit mm)*
G04 Created by KiCad (PCBNEW 8.0.1-rc1) date 2024-05-10 09:17:23*
%MOMM*%
%LPD*%
G01*
G04 APERTURE LIST*
%ADD10C,0.150000*%
%ADD11C,0.120000*%
G04 APERTURE END LIST*
D10*
X157764819Y-62396666D02*
X157288628Y-62729999D01*
X157764819Y-62968094D02*
X156764819Y-62968094D01*
X156764819Y-62968094D02*
X156764819Y-62587142D01*
X156764819Y-62587142D02*
X156812438Y-62491904D01*
X156812438Y-62491904D02*
X156860057Y-62444285D01*
X156860057Y-62444285D02*
X156955295Y-62396666D01*
X156955295Y-62396666D02*
X157098152Y-62396666D01*
X157098152Y-62396666D02*
X157193390Y-62444285D01*
X157193390Y-62444285D02*
X157241009Y-62491904D01*
X157241009Y-62491904D02*
X157288628Y-62587142D01*
X157288628Y-62587142D02*
X157288628Y-62968094D01*
X156764819Y-62063332D02*
X156764819Y-61444285D01*
X156764819Y-61444285D02*
X157145771Y-61777618D01*
X157145771Y-61777618D02*
X157145771Y-61634761D01*
X157145771Y-61634761D02*
X157193390Y-61539523D01*
X157193390Y-61539523D02*
X157241009Y-61491904D01*
X157241009Y-61491904D02*
X157336247Y-61444285D01*
X157336247Y-61444285D02*
X157574342Y-61444285D01*
X157574342Y-61444285D02*
X157669580Y-61491904D01*
X157669580Y-61491904D02*
X157717200Y-61539523D01*
X157717200Y-61539523D02*
X157764819Y-61634761D01*
X157764819Y-61634761D02*
X157764819Y-61920475D01*
X157764819Y-61920475D02*
X157717200Y-62015713D01*
X157717200Y-62015713D02*
X157669580Y-62063332D01*
X202866666Y-73324819D02*
X202866666Y-74039104D01*
X202866666Y-74039104D02*
X202819047Y-74181961D01*
X202819047Y-74181961D02*
X202723809Y-74277200D01*
X202723809Y-74277200D02*
X202580952Y-74324819D01*
X202580952Y-74324819D02*
X202485714Y-74324819D01*
X203295238Y-73420057D02*
X203342857Y-73372438D01*
X203342857Y-73372438D02*
X203438095Y-73324819D01*
X203438095Y-73324819D02*
X203676190Y-73324819D01*
X203676190Y-73324819D02*
X203771428Y-73372438D01*
X203771428Y-73372438D02*
X203819047Y-73420057D01*
X203819047Y-73420057D02*
X203866666Y-73515295D01*
X203866666Y-73515295D02*
X203866666Y-73610533D01*
X203866666Y-73610533D02*
X203819047Y-73753390D01*
X203819047Y-73753390D02*
X203247619Y-74324819D01*
X203247619Y-74324819D02*
X203866666Y-74324819D01*
X184774819Y-62396666D02*
X184298628Y-62729999D01*
X184774819Y-62968094D02*
X183774819Y-62968094D01*
X183774819Y-62968094D02*
X183774819Y-62587142D01*
X183774819Y-62587142D02*
X183822438Y-62491904D01*
X183822438Y-62491904D02*
X183870057Y-62444285D01*
X183870057Y-62444285D02*
X183965295Y-62396666D01*
X183965295Y-62396666D02*
X184108152Y-62396666D01*
X184108152Y-62396666D02*
X184203390Y-62444285D01*
X184203390Y-62444285D02*
X184251009Y-62491904D01*
X184251009Y-62491904D02*
X184298628Y-62587142D01*
X184298628Y-62587142D02*
X184298628Y-62968094D01*
X184203390Y-61825237D02*
X184155771Y-61920475D01*
X184155771Y-61920475D02*
X184108152Y-61968094D01*
X184108152Y-61968094D02*
X184012914Y-62015713D01*
X184012914Y-62015713D02*
X183965295Y-62015713D01*
X183965295Y-62015713D02*
X183870057Y-61968094D01*
X183870057Y-61968094D02*
X183822438Y-61920475D01*
X183822438Y-61920475D02*
X183774819Y-61825237D01*
X183774819Y-61825237D02*
X183774819Y-61634761D01*
X183774819Y-61634761D02*
X183822438Y-61539523D01*
X183822438Y-61539523D02*
X183870057Y-61491904D01*
X183870057Y-61491904D02*
X183965295Y-61444285D01*
X183965295Y-61444285D02*
X184012914Y-61444285D01*
X184012914Y-61444285D02*
X184108152Y-61491904D01*
X184108152Y-61491904D02*
X184155771Y-61539523D01*
X184155771Y-61539523D02*
X184203390Y-61634761D01*
X184203390Y-61634761D02*
X184203390Y-61825237D01*
X184203390Y-61825237D02*
X184251009Y-61920475D01*
X184251009Y-61920475D02*
X184298628Y-61968094D01*
X184298628Y-61968094D02*
X184393866Y-62015713D01*
X184393866Y-62015713D02*
X184584342Y-62015713D01*
X184584342Y-62015713D02*
X184679580Y-61968094D01*
X184679580Y-61968094D02*
X184727200Y-61920475D01*
X184727200Y-61920475D02*
X184774819Y-61825237D01*
X184774819Y-61825237D02*
X184774819Y-61634761D01*
X184774819Y-61634761D02*
X184727200Y-61539523D01*
X184727200Y-61539523D02*
X184679580Y-61491904D01*
X184679580Y-61491904D02*
X184584342Y-61444285D01*
X184584342Y-61444285D02*
X184393866Y-61444285D01*
X184393866Y-61444285D02*
X184298628Y-61491904D01*
X184298628Y-61491904D02*
X184251009Y-61539523D01*
X184251009Y-61539523D02*
X184203390Y-61634761D01*
X145614819Y-62396666D02*
X145138628Y-62729999D01*
X145614819Y-62968094D02*
X144614819Y-62968094D01*
X144614819Y-62968094D02*
X144614819Y-62587142D01*
X144614819Y-62587142D02*
X144662438Y-62491904D01*
X144662438Y-62491904D02*
X144710057Y-62444285D01*
X144710057Y-62444285D02*
X144805295Y-62396666D01*
X144805295Y-62396666D02*
X144948152Y-62396666D01*
X144948152Y-62396666D02*
X145043390Y-62444285D01*
X145043390Y-62444285D02*
X145091009Y-62491904D01*
X145091009Y-62491904D02*
X145138628Y-62587142D01*
X145138628Y-62587142D02*
X145138628Y-62968094D01*
X144710057Y-62015713D02*
X144662438Y-61968094D01*
X144662438Y-61968094D02*
X144614819Y-61872856D01*
X144614819Y-61872856D02*
X144614819Y-61634761D01*
X144614819Y-61634761D02*
X144662438Y-61539523D01*
X144662438Y-61539523D02*
X144710057Y-61491904D01*
X144710057Y-61491904D02*
X144805295Y-61444285D01*
X144805295Y-61444285D02*
X144900533Y-61444285D01*
X144900533Y-61444285D02*
X145043390Y-61491904D01*
X145043390Y-61491904D02*
X145614819Y-62063332D01*
X145614819Y-62063332D02*
X145614819Y-61444285D01*
X160644819Y-62396666D02*
X160168628Y-62729999D01*
X160644819Y-62968094D02*
X159644819Y-62968094D01*
X159644819Y-62968094D02*
X159644819Y-62587142D01*
X159644819Y-62587142D02*
X159692438Y-62491904D01*
X159692438Y-62491904D02*
X159740057Y-62444285D01*
X159740057Y-62444285D02*
X159835295Y-62396666D01*
X159835295Y-62396666D02*
X159978152Y-62396666D01*
X159978152Y-62396666D02*
X160073390Y-62444285D01*
X160073390Y-62444285D02*
X160121009Y-62491904D01*
X160121009Y-62491904D02*
X160168628Y-62587142D01*
X160168628Y-62587142D02*
X160168628Y-62968094D01*
X160644819Y-61444285D02*
X160644819Y-62015713D01*
X160644819Y-61729999D02*
X159644819Y-61729999D01*
X159644819Y-61729999D02*
X159787676Y-61825237D01*
X159787676Y-61825237D02*
X159882914Y-61920475D01*
X159882914Y-61920475D02*
X159930533Y-62015713D01*
X195244819Y-62396666D02*
X194768628Y-62729999D01*
X195244819Y-62968094D02*
X194244819Y-62968094D01*
X194244819Y-62968094D02*
X194244819Y-62587142D01*
X194244819Y-62587142D02*
X194292438Y-62491904D01*
X194292438Y-62491904D02*
X194340057Y-62444285D01*
X194340057Y-62444285D02*
X194435295Y-62396666D01*
X194435295Y-62396666D02*
X194578152Y-62396666D01*
X194578152Y-62396666D02*
X194673390Y-62444285D01*
X194673390Y-62444285D02*
X194721009Y-62491904D01*
X194721009Y-62491904D02*
X194768628Y-62587142D01*
X194768628Y-62587142D02*
X194768628Y-62968094D01*
X194244819Y-61539523D02*
X194244819Y-61729999D01*
X194244819Y-61729999D02*
X194292438Y-61825237D01*
X194292438Y-61825237D02*
X194340057Y-61872856D01*
X194340057Y-61872856D02*
X194482914Y-61968094D01*
X194482914Y-61968094D02*
X194673390Y-62015713D01*
X194673390Y-62015713D02*
X195054342Y-62015713D01*
X195054342Y-62015713D02*
X195149580Y-61968094D01*
X195149580Y-61968094D02*
X195197200Y-61920475D01*
X195197200Y-61920475D02*
X195244819Y-61825237D01*
X195244819Y-61825237D02*
X195244819Y-61634761D01*
X195244819Y-61634761D02*
X195197200Y-61539523D01*
X195197200Y-61539523D02*
X195149580Y-61491904D01*
X195149580Y-61491904D02*
X195054342Y-61444285D01*
X195054342Y-61444285D02*
X194816247Y-61444285D01*
X194816247Y-61444285D02*
X194721009Y-61491904D01*
X194721009Y-61491904D02*
X194673390Y-61539523D01*
X194673390Y-61539523D02*
X194625771Y-61634761D01*
X194625771Y-61634761D02*
X194625771Y-61825237D01*
X194625771Y-61825237D02*
X194673390Y-61920475D01*
X194673390Y-61920475D02*
X194721009Y-61968094D01*
X194721009Y-61968094D02*
X194816247Y-62015713D01*
X191194819Y-62396666D02*
X190718628Y-62729999D01*
X191194819Y-62968094D02*
X190194819Y-62968094D01*
X190194819Y-62968094D02*
X190194819Y-62587142D01*
X190194819Y-62587142D02*
X190242438Y-62491904D01*
X190242438Y-62491904D02*
X190290057Y-62444285D01*
X190290057Y-62444285D02*
X190385295Y-62396666D01*
X190385295Y-62396666D02*
X190528152Y-62396666D01*
X190528152Y-62396666D02*
X190623390Y-62444285D01*
X190623390Y-62444285D02*
X190671009Y-62491904D01*
X190671009Y-62491904D02*
X190718628Y-62587142D01*
X190718628Y-62587142D02*
X190718628Y-62968094D01*
X190194819Y-62063332D02*
X190194819Y-61396666D01*
X190194819Y-61396666D02*
X191194819Y-61825237D01*
X153954819Y-62396666D02*
X153478628Y-62729999D01*
X153954819Y-62968094D02*
X152954819Y-62968094D01*
X152954819Y-62968094D02*
X152954819Y-62587142D01*
X152954819Y-62587142D02*
X153002438Y-62491904D01*
X153002438Y-62491904D02*
X153050057Y-62444285D01*
X153050057Y-62444285D02*
X153145295Y-62396666D01*
X153145295Y-62396666D02*
X153288152Y-62396666D01*
X153288152Y-62396666D02*
X153383390Y-62444285D01*
X153383390Y-62444285D02*
X153431009Y-62491904D01*
X153431009Y-62491904D02*
X153478628Y-62587142D01*
X153478628Y-62587142D02*
X153478628Y-62968094D01*
X153288152Y-61539523D02*
X153954819Y-61539523D01*
X152907200Y-61777618D02*
X153621485Y-62015713D01*
X153621485Y-62015713D02*
X153621485Y-61396666D01*
X151024819Y-94313333D02*
X151739104Y-94313333D01*
X151739104Y-94313333D02*
X151881961Y-94360952D01*
X151881961Y-94360952D02*
X151977200Y-94456190D01*
X151977200Y-94456190D02*
X152024819Y-94599047D01*
X152024819Y-94599047D02*
X152024819Y-94694285D01*
X152024819Y-93313333D02*
X152024819Y-93884761D01*
X152024819Y-93599047D02*
X151024819Y-93599047D01*
X151024819Y-93599047D02*
X151167676Y-93694285D01*
X151167676Y-93694285D02*
X151262914Y-93789523D01*
X151262914Y-93789523D02*
X151310533Y-93884761D01*
D11*
%TO.C,R3*%
X153570000Y-58960000D02*
X153570000Y-65500000D01*
X153570000Y-65500000D02*
X156310000Y-65500000D01*
X154940000Y-55650000D02*
X154940000Y-58960000D01*
X154940000Y-68810000D02*
X154940000Y-65500000D01*
X156310000Y-58960000D02*
X153570000Y-58960000D01*
X156310000Y-65500000D02*
X156310000Y-58960000D01*
%TO.C,J2*%
X200600000Y-74870000D02*
X201930000Y-74870000D01*
X200600000Y-76200000D02*
X200600000Y-74870000D01*
X200600000Y-77470000D02*
X200600000Y-120710000D01*
X200600000Y-77470000D02*
X203200000Y-77470000D01*
X200600000Y-120710000D02*
X205800000Y-120710000D01*
X203200000Y-74870000D02*
X205800000Y-74870000D01*
X203200000Y-77470000D02*
X203200000Y-74870000D01*
X205800000Y-74870000D02*
X205800000Y-120710000D01*
%TO.C,R8*%
X185320000Y-58960000D02*
X185320000Y-65500000D01*
X185320000Y-65500000D02*
X188060000Y-65500000D01*
X186690000Y-55650000D02*
X186690000Y-58960000D01*
X186690000Y-68810000D02*
X186690000Y-65500000D01*
X188060000Y-58960000D02*
X185320000Y-58960000D01*
X188060000Y-65500000D02*
X188060000Y-58960000D01*
%TO.C,R5*%
X196750000Y-58960000D02*
X196750000Y-65500000D01*
X196750000Y-65500000D02*
X199490000Y-65500000D01*
X198120000Y-55650000D02*
X198120000Y-58960000D01*
X198120000Y-68810000D02*
X198120000Y-65500000D01*
X199490000Y-58960000D02*
X196750000Y-58960000D01*
X199490000Y-65500000D02*
X199490000Y-58960000D01*
%TO.C,R2*%
X157380000Y-58960000D02*
X157380000Y-65500000D01*
X157380000Y-65500000D02*
X160120000Y-65500000D01*
X158750000Y-55650000D02*
X158750000Y-58960000D01*
X158750000Y-68810000D02*
X158750000Y-65500000D01*
X160120000Y-58960000D02*
X157380000Y-58960000D01*
X160120000Y-65500000D02*
X160120000Y-58960000D01*
%TO.C,R1*%
X161190000Y-58960000D02*
X161190000Y-65500000D01*
X161190000Y-65500000D02*
X163930000Y-65500000D01*
X162560000Y-55650000D02*
X162560000Y-58960000D01*
X162560000Y-68810000D02*
X162560000Y-65500000D01*
X163930000Y-58960000D02*
X161190000Y-58960000D01*
X163930000Y-65500000D02*
X163930000Y-58960000D01*
%TO.C,R6*%
X192940000Y-58960000D02*
X192940000Y-65500000D01*
X192940000Y-65500000D02*
X195680000Y-65500000D01*
X194310000Y-55650000D02*
X194310000Y-58960000D01*
X194310000Y-68810000D02*
X194310000Y-65500000D01*
X195680000Y-58960000D02*
X192940000Y-58960000D01*
X195680000Y-65500000D02*
X195680000Y-58960000D01*
%TO.C,R7*%
X189130000Y-58960000D02*
X189130000Y-65500000D01*
X189130000Y-65500000D02*
X191870000Y-65500000D01*
X190500000Y-55650000D02*
X190500000Y-58960000D01*
X190500000Y-68810000D02*
X190500000Y-65500000D01*
X191870000Y-58960000D02*
X189130000Y-58960000D01*
X191870000Y-65500000D02*
X191870000Y-58960000D01*
%TO.C,R4*%
X149760000Y-58960000D02*
X149760000Y-65500000D01*
X149760000Y-65500000D02*
X152500000Y-65500000D01*
X151130000Y-55650000D02*
X151130000Y-58960000D01*
X151130000Y-68810000D02*
X151130000Y-65500000D01*
X152500000Y-58960000D02*
X149760000Y-58960000D01*
X152500000Y-65500000D02*
X152500000Y-58960000D01*
%TO.C,J1*%
X152570000Y-74230000D02*
X152570000Y-87396667D01*
X152570000Y-87396667D02*
X152930000Y-87396667D01*
X152570000Y-100563333D02*
X152570000Y-113730000D01*
X152570000Y-113730000D02*
X192870000Y-113730000D01*
X152930000Y-87396667D02*
X152930000Y-100563333D01*
X152930000Y-100563333D02*
X152570000Y-100563333D01*
X192870000Y-74230000D02*
X152570000Y-74230000D01*
X192870000Y-113730000D02*
X192870000Y-74230000D01*
%TD*%
M02*
