%TF.GenerationSoftware,KiCad,Pcbnew,8.0.1-rc1*%
%TF.CreationDate,2024-05-10T09:17:23-04:00*%
%TF.ProjectId,KiCad LED matrix,4b694361-6420-44c4-9544-206d61747269,rev?*%
%TF.SameCoordinates,Original*%
%TF.FileFunction,Soldermask,Bot*%
%TF.FilePolarity,Negative*%
%FSLAX46Y46*%
G04 Gerber Fmt 4.6, Leading zero omitted, Abs format (unit mm)*
G04 Created by KiCad (PCBNEW 8.0.1-rc1) date 2024-05-10 09:17:23*
%MOMM*%
%LPD*%
G01*
G04 APERTURE LIST*
%ADD10C,1.600000*%
%ADD11O,1.600000X1.600000*%
%ADD12O,1.700000X1.700000*%
%ADD13R,1.700000X1.700000*%
%ADD14O,1.200000X2.000000*%
G04 APERTURE END LIST*
D10*
%TO.C,R3*%
X154940000Y-54610000D03*
D11*
X154940000Y-69850000D03*
%TD*%
D12*
%TO.C,J2*%
X201930000Y-116840000D03*
X201930000Y-114300000D03*
X201930000Y-111760000D03*
X201930000Y-109220000D03*
X201930000Y-106680000D03*
X201930000Y-104140000D03*
X201930000Y-101600000D03*
X201930000Y-99060000D03*
X201930000Y-96520000D03*
X201930000Y-93980000D03*
X201930000Y-91440000D03*
X201930000Y-88900000D03*
X201930000Y-86360000D03*
X201930000Y-83820000D03*
X201930000Y-81280000D03*
X201930000Y-78740000D03*
X204470000Y-78740000D03*
X204470000Y-81280000D03*
X204470000Y-83820000D03*
X204470000Y-86360000D03*
X204470000Y-88900000D03*
X204470000Y-91440000D03*
X204470000Y-93980000D03*
X204470000Y-96520000D03*
X204470000Y-99060000D03*
X204470000Y-101600000D03*
X204470000Y-104140000D03*
X204470000Y-106680000D03*
X204470000Y-109220000D03*
X204470000Y-111760000D03*
X204470000Y-114300000D03*
X204470000Y-116840000D03*
X201930000Y-119380000D03*
X204470000Y-119380000D03*
D13*
X201930000Y-76200000D03*
D12*
X204470000Y-76200000D03*
%TD*%
D10*
%TO.C,R8*%
X186690000Y-69850000D03*
D11*
X186690000Y-54610000D03*
%TD*%
D10*
%TO.C,R5*%
X198120000Y-69850000D03*
D11*
X198120000Y-54610000D03*
%TD*%
D10*
%TO.C,R2*%
X158750000Y-54610000D03*
D11*
X158750000Y-69850000D03*
%TD*%
D10*
%TO.C,R1*%
X162560000Y-69850000D03*
D11*
X162560000Y-54610000D03*
%TD*%
D10*
%TO.C,R6*%
X194310000Y-69850000D03*
D11*
X194310000Y-54610000D03*
%TD*%
D10*
%TO.C,R7*%
X190500000Y-69850000D03*
D11*
X190500000Y-54610000D03*
%TD*%
D10*
%TO.C,R4*%
X151130000Y-54610000D03*
D11*
X151130000Y-69850000D03*
%TD*%
D14*
%TO.C,J1*%
X191770000Y-112230000D03*
X189230000Y-112230000D03*
X186690000Y-112230000D03*
X184150000Y-112230000D03*
X181610000Y-112230000D03*
X179070000Y-112230000D03*
X176530000Y-112230000D03*
X173990000Y-112230000D03*
X171450000Y-112230000D03*
X168910000Y-112230000D03*
X166370000Y-112230000D03*
X163830000Y-112230000D03*
X161290000Y-112230000D03*
X158750000Y-112230000D03*
X156210000Y-112230000D03*
X153670000Y-112230000D03*
X153670000Y-75730000D03*
X156210000Y-75730000D03*
X158750000Y-75730000D03*
X161290000Y-75730000D03*
X163830000Y-75730000D03*
X166370000Y-75730000D03*
X168910000Y-75730000D03*
X171450000Y-75730000D03*
X173990000Y-75730000D03*
X176530000Y-75730000D03*
X179070000Y-75730000D03*
X181610000Y-75730000D03*
X184150000Y-75730000D03*
X186690000Y-75730000D03*
X189230000Y-75730000D03*
X191770000Y-75730000D03*
%TD*%
M02*
