M48
; DRILL file {KiCad 8.0.1-rc1} date 2024-05-10T09:17:21-0400
; FORMAT={-:-/ absolute / inch / decimal}
; #@! TF.CreationDate,2024-05-10T09:17:21-04:00
; #@! TF.GenerationSoftware,Kicad,Pcbnew,8.0.1-rc1
; #@! TF.FileFunction,Plated,1,2,PTH
FMAT,2
INCH
; #@! TA.AperFunction,Plated,PTH,ComponentDrill
T1C0.0315
; #@! TA.AperFunction,Plated,PTH,ComponentDrill
T2C0.0394
%
G90
G05
T1
X5.95Y-2.15
X5.95Y-2.75
X6.05Y-2.9815
X6.05Y-4.4185
X6.1Y-2.15
X6.1Y-2.75
X6.15Y-2.9815
X6.15Y-4.4185
X6.25Y-2.15
X6.25Y-2.75
X6.25Y-2.9815
X6.25Y-4.4185
X6.35Y-2.9815
X6.35Y-4.4185
X6.4Y-2.15
X6.4Y-2.75
X6.45Y-2.9815
X6.45Y-4.4185
X6.55Y-2.9815
X6.55Y-4.4185
X6.65Y-2.9815
X6.65Y-4.4185
X6.75Y-2.9815
X6.75Y-4.4185
X6.85Y-2.9815
X6.85Y-4.4185
X6.95Y-2.9815
X6.95Y-4.4185
X7.05Y-2.9815
X7.05Y-4.4185
X7.15Y-2.9815
X7.15Y-4.4185
X7.25Y-2.9815
X7.25Y-4.4185
X7.35Y-2.15
X7.35Y-2.75
X7.35Y-2.9815
X7.35Y-4.4185
X7.45Y-2.9815
X7.45Y-4.4185
X7.5Y-2.15
X7.5Y-2.75
X7.55Y-2.9815
X7.55Y-4.4185
X7.65Y-2.15
X7.65Y-2.75
X7.8Y-2.15
X7.8Y-2.75
T2
X7.95Y-3.0
X7.95Y-3.1
X7.95Y-3.2
X7.95Y-3.3
X7.95Y-3.4
X7.95Y-3.5
X7.95Y-3.6
X7.95Y-3.7
X7.95Y-3.8
X7.95Y-3.9
X7.95Y-4.0
X7.95Y-4.1
X7.95Y-4.2
X7.95Y-4.3
X7.95Y-4.4
X7.95Y-4.5
X7.95Y-4.6
X7.95Y-4.7
X8.05Y-3.0
X8.05Y-3.1
X8.05Y-3.2
X8.05Y-3.3
X8.05Y-3.4
X8.05Y-3.5
X8.05Y-3.6
X8.05Y-3.7
X8.05Y-3.8
X8.05Y-3.9
X8.05Y-4.0
X8.05Y-4.1
X8.05Y-4.2
X8.05Y-4.3
X8.05Y-4.4
X8.05Y-4.5
X8.05Y-4.6
X8.05Y-4.7
M30
